<?xml version="1.0" encoding="utf-8"?>
<!-- Generator: Adobe Illustrator 27.0.0, SVG Export Plug-In . SVG Version: 6.00 Build 0)  -->
<svg version="1.1" id="图层_1" xmlns="http://www.w3.org/2000/svg" xmlns:xlink="http://www.w3.org/1999/xlink" x="0px" y="0px"
	 viewBox="0 0 30 30" style="enable-background:new 0 0 30 30;" xml:space="preserve">
<path d="M15,0.3L2.3,7.6v14.7L15,29.7l12.7-7.4V7.6L15,0.3z M12.4,12.5l1.2-0.7l2.3,1.3l-1.2,0.7l2.5,1.5l1.2-0.7l2.4,1.4l-1.2,0.7
	l4.6,2.6l-9.1,5.3L5.2,19v-2.7l9.9,5.7l4.4-2.6l-2.2-1.3l-1.2,0.7l-2.4-1.4l1.2-0.7l-2.5-1.5l-1.2,0.7l-2.3-1.3l1.2-0.7l-4.8-2.8
	l9.8-5.7l9.7,5.7l-2.2,1.3L15.1,8l-5.3,3L12.4,12.5z"/>
</svg>
