<?xml version="1.0" encoding="utf-8"?>
<!-- Generator: Adobe Illustrator 26.4.1, SVG Export Plug-In . SVG Version: 6.00 Build 0)  -->
<svg version="1.1" id="图层_1" xmlns="http://www.w3.org/2000/svg" xmlns:xlink="http://www.w3.org/1999/xlink" x="0px" y="0px"
	 viewBox="0 0 30 30" style="enable-background:new 0 0 30 30;" xml:space="preserve">
<style type="text/css">
	.st0{fill:#FFA015;}
	.st1{fill:#FF3C00;}
	.st2{fill:#FFFFFF;}
</style>
<g>
	<g>
		<path class="st0" d="M24.1,15c0-4.5-2.5-8.5-6.2-10.5V3.1h-6.1v0c-1.3,0-2.6,0.3-3.7,0.7C6.7,4.3,5.6,5,4.6,5.8
			c-1.2,1-2.3,2.3-3,3.7C0.7,11.2,0.2,13,0.2,15c0,6.4,5.1,11.7,11.5,11.9v0h6.1v-1.4C21.6,23.5,24.1,19.5,24.1,15z"/>
		<path class="st1" d="M29.8,15c0,6.6-5.3,11.9-11.9,11.9S5.9,21.6,5.9,15c0-2,0.5-3.8,1.3-5.5C8,8.1,9,6.8,10.3,5.8
			c1-0.8,2.2-1.5,3.4-2c1.3-0.5,2.7-0.8,4.2-0.8C24.4,3.1,29.8,8.4,29.8,15z"/>
		<g>
			<polygon class="st2" points="18.7,17.5 22.1,15.5 20.4,14.5 17,16.5 			"/>
			<polygon class="st2" points="15.3,15.5 18.7,13.5 17,12.5 13.6,14.5 			"/>
			<g>
				<polygon class="st2" points="18.2,14.2 16.5,15.2 16.6,15.2 16.6,15.2 17.5,15.8 19.2,14.8 				"/>
				<polygon class="st2" points="16.5,13.2 14.4,11.9 17.9,9.9 23,13 24.7,12 17.9,7.9 16.2,8.9 12.8,11 11.1,12 14.8,14.2 				"/>
				<polygon class="st2" points="19.2,16.8 21.2,18.1 17.9,20.1 11,16 11,18 16.2,21.1 17.9,22.1 24.6,18 20.9,15.8 				"/>
			</g>
		</g>
	</g>
</g>
</svg>
